<svg xmlns="http://www.w3.org/2000/svg" viewBox="0 0 255 74">
    <g fill="none" fill-rule="evenodd">
        <path fill="#1D2144" fill-rule="nonzero" d="M12.63 73.88c1.4 0 2.78-.17 4.18-.5 1.4-.33 2.65-.86 3.77-1.59a8.57 8.57 0 002.72-2.89 8.53 8.53 0 001.04-4.37c0-1.32-.25-2.46-.77-3.41a7.63 7.63 0 00-2.03-2.42 10.98 10.98 0 00-2.83-1.6 20.64 20.64 0 00-3.11-.93c-1.76-.4-3.04-.77-3.83-1.1-.78-.33-1.18-.88-1.18-1.65 0-.8.36-1.38 1.07-1.7a5.51 5.51 0 012.34-.5c1.1 0 2.15.24 3.14.71.99.48 1.85 1.07 2.58 1.76l4.95-5.11a13 13 0 00-4.98-2.89 19.25 19.25 0 00-6.02-.96c-1.32 0-2.65.17-3.98.52a11.98 11.98 0 00-3.66 1.62 8.85 8.85 0 00-2.7 2.84 8 8 0 00-1.04 4.2c0 1.29.24 2.39.71 3.3a7.39 7.39 0 001.85 2.31 9.08 9.08 0 002.55 1.49c.96.37 1.9.66 2.86.88 1.87.44 3.25.86 4.13 1.26.88.4 1.32 1.03 1.32 1.87 0 .88-.36 1.5-1.08 1.85a4.92 4.92 0 01-2.17.52 8.25 8.25 0 01-3.74-.88 10.12 10.12 0 01-2.97-2.2L.7 69.64a13.8 13.8 0 005.37 3.17 20.65 20.65 0 006.57 1.07zM36.64 73V58.15c0-1.65.4-3.04 1.18-4.18a3.82 3.82 0 013.33-1.7c1.36 0 2.35.45 2.97 1.37.63.92.94 2.16.94 3.74V73h9.02V58.2c0-.77.09-1.5.27-2.22a5.78 5.78 0 01.85-1.9c.39-.55.87-.99 1.43-1.32.57-.33 1.24-.5 2.01-.5.8 0 1.46.16 1.95.47.5.31.9.73 1.19 1.24.29.51.5 1.13.6 1.84.11.72.17 1.46.17 2.23V73h9.02V56.06c0-1.28-.18-2.6-.53-3.93a10.96 10.96 0 00-1.67-3.63 8.76 8.76 0 00-3.06-2.64 9.86 9.86 0 00-4.7-1.02c-2.05 0-3.8.42-5.22 1.26a10.43 10.43 0 00-3.52 3.41 8.3 8.3 0 00-3.22-3.46 9.79 9.79 0 00-5.03-1.21 9.88 9.88 0 00-5.17 1.4 7.85 7.85 0 00-1.79 1.46 9.56 9.56 0 00-1.24 1.7h-.1v-3.79h-8.75V73h9.07zm48 .66c1.65 0 3.18-.31 4.59-.94s2.46-1.5 3.16-2.64h.17V73h8.25V59.2c0-2.5-.23-4.65-.7-6.47a11.24 11.24 0 00-2.16-4.5 8.72 8.72 0 00-3.88-2.65c-1.6-.57-3.55-.85-5.86-.85-2.23 0-4.43.39-6.57 1.16A15.8 15.8 0 0076 49.35l4.57 4.9c.84-.77 1.86-1.43 3.05-1.98a8.76 8.76 0 013.71-.83c1.4 0 2.57.32 3.52.96.96.64 1.43 1.64 1.43 3v.44c-1.98 0-4.01.11-6.1.33-2.1.22-4 .66-5.7 1.32s-3.1 1.6-4.18 2.8a6.9 6.9 0 00-1.62 4.79c0 1.61.31 2.97.94 4.07A7.75 7.75 0 0078 71.79a9.99 9.99 0 003.22 1.43c1.17.3 2.3.44 3.4.44zm2.25-6.05c-.44 0-.9-.05-1.37-.14a3.85 3.85 0 01-1.27-.47 2.77 2.77 0 01-.9-.88c-.24-.36-.36-.8-.36-1.32 0-.8.25-1.45.77-1.95.51-.5 1.16-.87 1.95-1.12s1.69-.43 2.7-.53a33.1 33.1 0 013-.13h1.15V62c0 1.72-.49 3.09-1.46 4.1-.97 1-2.38 1.51-4.2 1.51zM114.54 73V58.92c0-.55.1-1.2.33-1.93a6.04 6.04 0 011.07-2.03 6.22 6.22 0 011.98-1.6 6.42 6.42 0 013.05-.65c.37 0 .75.01 1.13.05.39.04.78.11 1.18.22l.39-7.92a4.13 4.13 0 00-.85-.16 10.24 10.24 0 00-1.08-.06c-1.68 0-3.17.44-4.45 1.32a8.89 8.89 0 00-2.97 3.41h-.11v-3.96h-8.7V73h9.03zm20.82.66a16.63 16.63 0 005.23-.83l-.11-6.6c-.33.15-.74.26-1.24.33a9.59 9.59 0 01-1.4.11c-1.29 0-2.17-.32-2.67-.96-.5-.64-.74-1.6-.74-2.88V52.36h6.43v-6.76h-6.43v-7.2h-8.86v7.2h-4.34v6.76h4.4v11.56c0 1.46.16 2.8.5 3.98a7.17 7.17 0 004.62 5.06c1.24.46 2.78.69 4.61.69zm28.62-.66V45.61h-9.02V73h9.02zm19.12.88c2.01 0 3.92-.31 5.72-.94 1.8-.62 3.26-1.48 4.4-2.58l-5-6.1a5.21 5.21 0 01-2.18 1.5 7.48 7.48 0 01-2.72.53c-1 0-1.88-.18-2.67-.55a6.16 6.16 0 01-2.04-1.51 6.58 6.58 0 01-1.29-2.23 8.15 8.15 0 01-.44-2.7c0-.95.16-1.85.47-2.69a7.25 7.25 0 011.3-2.23 6.27 6.27 0 011.97-1.54 5.7 5.7 0 012.59-.58 6.42 6.42 0 014.78 2.2l5.23-6.05c-.55-.54-1.2-1.05-1.96-1.5a12.79 12.79 0 00-2.47-1.16 19.67 19.67 0 00-2.8-.75 15.84 15.84 0 00-2.95-.27c-2.12 0-4.12.34-6 1.02a13.55 13.55 0 00-8.11 7.5 14.91 14.91 0 00-1.18 6.06c0 2.27.4 4.3 1.18 6.1a13.55 13.55 0 008.12 7.48c1.87.66 3.88.99 6.05.99zm25.5 0c2.09 0 4.05-.35 5.88-1.04a15.1 15.1 0 004.84-2.95c1.4-1.26 2.5-2.8 3.3-4.62.8-1.81 1.21-3.84 1.21-6.08s-.4-4.25-1.2-6.05c-.81-1.8-1.91-3.31-3.3-4.56-1.4-1.25-3.01-2.2-4.85-2.86-1.83-.66-3.8-.99-5.88-.99-2.06 0-4 .33-5.86.99a13.6 13.6 0 00-8.11 7.42c-.8 1.8-1.21 3.82-1.21 6.05 0 2.24.4 4.27 1.2 6.08a13.82 13.82 0 008.12 7.57 16.5 16.5 0 005.86 1.04zm.05-7.59c-1.06 0-2-.2-2.8-.6a6.09 6.09 0 01-2.04-1.63 7.07 7.07 0 01-1.23-2.28 8.29 8.29 0 010-5.17 6.71 6.71 0 011.2-2.23 6.12 6.12 0 012.01-1.57c.8-.4 1.74-.6 2.8-.6 1.07 0 2 .2 2.81.6a6.43 6.43 0 012.04 1.57c.55.64.97 1.39 1.26 2.23.3.84.44 1.7.44 2.58 0 .88-.13 1.75-.41 2.59a7.07 7.07 0 01-1.24 2.28 6.09 6.09 0 01-2.03 1.62c-.8.4-1.74.61-2.8.61zM236.63 73V58.15c0-.77.1-1.51.3-2.23a5.87 5.87 0 01.9-1.9 4.3 4.3 0 013.64-1.76c.8 0 1.47.16 2 .47a3.28 3.28 0 011.24 1.27c.3.53.5 1.14.64 1.84.12.7.19 1.43.19 2.2V73h9.07V56.06c0-1.36-.17-2.71-.52-4.07a10.05 10.05 0 00-1.7-3.6 8.93 8.93 0 00-3.11-2.56 10.13 10.13 0 00-4.68-.99 9.2 9.2 0 00-2.7.39c-.84.25-1.61.58-2.33.99a7.76 7.76 0 00-1.87 1.45 9.04 9.04 0 00-1.3 1.74h-.1v-3.8h-8.75V73h9.08z"/>
        <g stroke-linecap="round" stroke-linejoin="round">
            <path fill="#FFABB8" fill-rule="nonzero" stroke="#FC778B" stroke-width="3" d="M190.25 20.14a7.4 7.4 0 00-3.51-6.29 7.4 7.4 0 00-7.07-6 7.4 7.4 0 00-6.65-4.17 7.37 7.37 0 00-3.28.78 7.38 7.38 0 00-5.5-2.46 7.37 7.37 0 00-3.5.88 7.38 7.38 0 00-3.5-.88 7.38 7.38 0 00-5.66 2.64 7.36 7.36 0 00-2.55-.46 7.4 7.4 0 00-6.39 3.67 7.4 7.4 0 00-7.1 6.08 7.4 7.4 0 00-4.06 8.18 7.37 7.37 0 00-.48 2.6 7.4 7.4 0 0011.56 6.13h.26a7.38 7.38 0 002.94-.6 7.4 7.4 0 007.14 5.5 7.39 7.39 0 0011.59.48 7.4 7.4 0 009.63-3.99c1.6.68 3.48 1.07 5.49 1.07 5.88 0 10.64-3.31 10.64-7.4 0-.93-.25-1.81-.7-2.63.44-.95.7-2 .7-3.13z"/>
            <path stroke="#FC8294" stroke-width="2" d="M150.18 10.87l3.36 2.89m-15.18 9.6s.95-2.04 6.14-2.04 9.04-2.94 9.04-7.57c1.15.58 8.09 1.95 8.72-3.93.63 3.72.73 7.24 8.3 9.45 7.56 2.2 6.93 7.25 6.66 9.98m-29.29-8.41s-1.38 3.63 1.98 5.31m15.68-9.16s-5.54 6.53-.7 12.26m-8.25-5.1s2.24-2.6 6.26-1.03m6.8-4.12s-.04-3.88 3-5.72m4.16 10.87s4.99-2.1 7.61 0"/>
        </g>
    </g>
</svg>